<?xml version="1.0" encoding="UTF-8"?>
<svg id="Layer_1" data-name="Layer 1" xmlns="http://www.w3.org/2000/svg" viewBox="0 0 1280 854">
  <defs>
    <style>
      .cls-1, .cls-2, .cls-3, .cls-4, .cls-5, .cls-6, .cls-7, .cls-8, .cls-9 {
        stroke: #1c437d;
        stroke-linecap: round;
        stroke-linejoin: round;
        stroke-width: 3.99px;
      }

      .cls-1, .cls-10 {
        fill: #00a788;
      }

      .cls-11, .cls-12, .cls-13, .cls-14, .cls-15, .cls-16, .cls-17, .cls-18, .cls-19, .cls-20, .cls-10, .cls-21, .cls-22 {
        stroke-width: 0px;
      }

      .cls-11, .cls-7 {
        fill: #fa5101;
      }

      .cls-12, .cls-6 {
        fill: #07417e;
      }

      .cls-2 {
        opacity: .6;
      }

      .cls-2, .cls-14, .cls-17, .cls-19, .cls-22 {
        fill: #19305a;
      }

      .cls-13, .cls-9 {
        fill: #ef5423;
      }

      .cls-3 {
        fill: #d4abd0;
      }

      .cls-4, .cls-20 {
        fill: #fff;
      }

      .cls-5 {
        fill: #e8d4e7;
      }

      .cls-15 {
        fill: #89239a;
      }

      .cls-16 {
        fill: #1c437d;
      }

      .cls-17 {
        opacity: .4;
      }

      .cls-18 {
        fill: #46d4af;
      }

      .cls-23, .cls-19 {
        opacity: .3;
      }

      .cls-8 {
        fill: #b9e1d2;
      }

      .cls-21 {
        fill: #d4aad0;
      }

      .cls-22 {
        opacity: .2;
      }
    </style>
  </defs>
  <path class="cls-13" d="M334.8,183.04l7.16,2.69-6.21,1.76c-2.07.59-3.72,2.17-4.39,4.22l-2.25,6.87-2.77-6.89c-.69-1.71-2.07-3.05-3.8-3.68l-6.29-2.28,6.81-2.8c1.65-.68,2.94-2,3.58-3.67l2.46-6.39,1.76,5.94c.58,1.94,2.03,3.51,3.93,4.22Z"/>
  <path class="cls-18" d="M290.44,576.65l7.16,2.69-6.21,1.76c-2.07.59-3.72,2.17-4.39,4.22l-2.25,6.87-2.77-6.89c-.69-1.71-2.07-3.05-3.8-3.68l-6.29-2.28,6.81-2.8c1.65-.68,2.94-2,3.58-3.67l2.46-6.39,1.76,5.94c.58,1.94,2.03,3.51,3.93,4.22Z"/>
  <g>
    <g>
      <g>
        <path class="cls-4" d="M484.24,612.92s32.27,22.76,69.35,3.04l-34.67-19.35-34.67,16.31Z"/>
        <path class="cls-4" d="M721.86,460.8s31.4,58.89,21.57,76.29l-35.75-19.85,14.18-56.44Z"/>
        <path class="cls-4" d="M735.38,520.59c3.93-2.94,7.71-6.24,11.35-9.83,7.16-7.1,13.74-15.34,19.75-24.13h0c4.03-5.92,7.8-12.08,11.29-18.32,10.09-17.99,17.98-36.62,23.59-51.53,5.86-15.56,9.26-27.09,10.17-29.74.1-.31.18-.5.22-.55l-16.99-48.77c-8.21-13.15-12.81,29.52-12.81,29.52-2.26-1.33-5.01-5.23-6.63-7.33-1.83-2.38-3.23,1.39-3.48,2.73-1.42,7.84,4.89,22.76,4.89,22.76l-40.5,59.36c-2.48,3.64-5.26,7.07-8.27,10.24-1.93,2.04-3.97,3.99-6.11,5.81-3.59,15.26-3.23,44.69,13.52,59.78Z"/>
        <path class="cls-7" d="M484.24,612.93c22.13-4.31,39.57-4.03,54.29-1.11,5.35,1.07,10.33,2.47,15.06,4.15l4.45,15.96,8.79,31.56,5.71,20.51,5.2,18.62,2.92,10.5h156.95s-24.83-161.89-24.83-161.89l30.64-14.14c-1.97-2.91-3.78-6.32-5.46-10.11-9.3-20.96-14.3-52.73-16.11-66.18-8.76,7.54-19.09,13.17-30.35,16.39-13.36,3.81-29.47,7.11-44.55,6.76-.53-.01-1.04-.03-1.55-.04-34.86-1.36-50.42,9.23-50.42,9.23-7.89,1.56-28.45,9.46-46.4,17.37-7.92,3.46-15.32,6.94-20.93,9.86-15.07,7.87-26.01,21.86-30.07,38.38l-13.35,54.17Z"/>
        <path class="cls-4" d="M570.68,464.66l4.37,34.13c1.62,12.75,12.66,22.22,25.52,21.86,13.77-.37,24.39-11.68,24.39-24.99,0-1.3-.1-2.63-.31-3.96l-.79-5-3.08-19.47-17.35-.89-32.75-1.69Z"/>
        <path class="cls-6" d="M631.44,408.43c-.49-5.03-2.84-11.03-5.52-16.47-5.13-10.39-15.05-17.61-26.52-19.27-17.23-2.48-39.51-.06-51.65,16.49-13.68,18.66-2.31,55.97,12.35,59.15,14.67,3.18,71.34-39.9,71.34-39.9Z"/>
        <path class="cls-6" d="M586.52,473.43c5.86,5.55,19.35,18.53,38.12,18.29l-3.87-24.46-17.35-.89-16.9,7.07Z"/>
        <path class="cls-4" d="M561.55,417.22l2.61,13.6.64,3.33,2.57,13.38,1.48,7.67,1.83,9.46,8.92,5.36s2.44,1.64,6.92,3.4c0,0,0,.01.01.01,6.76,2.69,18.17,5.67,32.8,3.74,1.02-.13,1.99-.37,2.89-.69,6.89-2.35,10.43-9.61,11.98-18.65,1.14-6.65,1.23-14.26.8-21.6-.66-11.52-2.57-22.41-3.56-27.81-15.35-13.71-36.31-16.21-51.85-19.25l-18.05,28.04Z"/>
        <polygon class="cls-6" points="690.77 703.48 845.14 703.48 815.98 577.88 661.61 577.88 690.77 703.48"/>
        <path class="cls-2" d="M690.77,703.48l-29.16-125.6c44.12,102.11,109.69,113.42,183.53,125.6"/>
        <ellipse class="cls-4" cx="753.37" cy="640.68" rx="9.26" ry="11.01" transform="translate(-189.15 341.18) rotate(-22.75)"/>
        <path class="cls-4" d="M499.43,610.59l.47,12.77,2.1,57.21v.07c.18,4.32,1.31,8.5,3.26,12.27,1.94,3.74,4.72,7.07,8.16,9.71h64.32s134.34.45,134.34.45c2.4,0,4.85-5.58,1.3-8.34-7.84-6.13-20.13-12.88-28.67-18.34-4.72-3.01-10.34-4.32-15.89-3.61-9.25,1.18-22.58,5.87-39.17.98-2.88-.85-5.8-1.5-8.75-1.96l-54.07-8.31-21.28-3.27-.6-36.05-.19-10.91c-2.03-.54-4.1-1.02-6.24-1.45-11.17-2.22-23.92-2.91-39.1-1.23Z"/>
        <rect class="cls-6" x="397.79" y="700.23" width="550.07" height="19.7" transform="translate(1345.64 1420.16) rotate(-180)"/>
        <g>
          <g>
            <path class="cls-11" d="M948.79,215.14c-1.38-2.17-3.55-3.83-6.02-4.58.29,3.07-1.01,6.25-3.37,8.23.35-2.24.34-4.53-.04-6.76-.1-.57-.24-1.19-.69-1.56-.48-.4-1.16-.42-1.78-.4-2.56.08-5.1.44-7.59,1.06,1.34,3.6.76,7.86-1.51,10.97-1.62,2.23-3.96,3.8-5.95,5.71-1.99,1.91-3.71,4.44-3.49,7.19l.91,2.78c6.18.38,12.3-2.05,17.24-5.78,4.94-3.73,8.82-8.69,12.23-13.86.27-.41.55-.85.6-1.35.05-.59-.23-1.15-.55-1.65Z"/>
            <g>
              <path class="cls-11" d="M917.18,235.96c.14.18-.36.86-1.4,1.68-1.04.82-2.64,1.76-4.56,2.42-1.92.65-3.77.89-5.09.87-1.33-.02-2.13-.24-2.14-.47,0-.5,3.11-.8,6.67-2.04,3.57-1.19,6.22-2.85,6.52-2.46Z"/>
              <path class="cls-11" d="M919.35,237.34c-.29,1.94-2.09,3.27-4.03,2.98-1.94-.29-3.27-2.09-2.98-4.03.29-1.94,2.09-3.27,4.03-2.98,1.94.29,3.27,2.09,2.98,4.03Z"/>
            </g>
          </g>
          <g>
            <polygon class="cls-12" points="730.79 235.32 812.05 200.84 922.52 253.55 868.77 269.96 782.69 257.5 730.79 235.32"/>
            <g>
              <polygon class="cls-14" points="731.02 230.86 730.79 235.32 812.05 200.84 813.2 195.21 731.02 230.86"/>
              <polygon class="cls-14" points="922.52 253.55 923.51 248.68 813.2 195.21 812.05 200.84 922.52 253.55"/>
              <polygon class="cls-19" points="922.52 253.55 923.51 248.68 813.2 195.21 812.05 200.84 922.52 253.55"/>
            </g>
            <g>
              <polygon class="cls-12" points="766.2 277.65 774.52 236.74 876.67 257.51 869.43 298.2 766.2 277.65"/>
              <ellipse class="cls-12" cx="825.69" cy="246.42" rx="17.59" ry="52.12" transform="translate(430.72 1012.24) rotate(-79.33)"/>
            </g>
            <path class="cls-19" d="M865.33,241.66l-9.82,43.48,13.81,13.48,7.29-39.53c.77-3.76-.28-7.69-2.87-10.52-2.16-2.36-5.07-5.06-8.41-6.91Z"/>
            <path class="cls-20" d="M871.1,288.93c-.26,1.39-1.5,8.3-1.61,8.61-3,8.69-28.65,2.9-52.71-1.63-24.21-4.56-46.46-9.6-50.73-17.67,0,0,1.7-7.17,1.95-8.51,1.68-8.9,26.33-11.42,54.84-6.05,28.52,5.37,49.92,16.35,48.25,25.26Z"/>
            <g>
              <path class="cls-14" d="M869.46,298.07c-1.68,8.9-26.33,11.56-54.84,6.19-28.52-5.37-50.27-16.94-48.6-25.84,1.68-8.9,26.15-11.76,54.67-6.39,28.52,5.37,50.45,17.15,48.77,26.05Z"/>
              <path class="cls-14" d="M869.91,298.16c-.06,0,.22-.82-.12-2.33-.33-1.51-1.55-3.52-3.67-5.54-4.26-4.05-11.83-8.23-21.69-11.78-4.93-1.79-10.45-3.42-16.46-4.81-6.01-1.39-12.51-2.55-19.4-3.3-6.89-.74-14.19-1.11-21.72-.56-3.75.29-7.58.81-11.31,1.89-1.86.56-3.69,1.27-5.35,2.31-.43.24-.8.56-1.19.85-.35.33-.74.64-1.04,1.03-.63.74-1.13,1.6-1.31,2.56-.37,1.93.43,3.89,1.58,5.44,1.15,1.58,2.6,2.92,4.12,4.12,3.07,2.38,6.44,4.27,9.83,5.9,6.81,3.26,13.74,5.58,20.43,7.4,6.7,1.81,13.17,3.1,19.27,4,6.1.91,11.84,1.42,17.08,1.59,10.47.35,19.05-.7,24.52-2.86,2.72-1.08,4.6-2.5,5.46-3.78.87-1.28.91-2.15.96-2.12,0,0-.04.2-.14.58-.04.2-.14.42-.26.69-.1.28-.29.56-.5.89-.85,1.31-2.74,2.76-5.47,3.87-5.48,2.21-14.08,3.3-24.57,2.98-5.25-.15-11-.65-17.11-1.55-6.11-.89-12.6-2.17-19.32-3.98-6.7-1.82-13.66-4.14-20.49-7.4-3.41-1.64-6.79-3.53-9.9-5.94-1.54-1.21-3-2.57-4.19-4.19-.58-.81-1.1-1.69-1.41-2.67-.32-.96-.43-2.02-.23-3.04.19-1.02.73-1.95,1.38-2.72.31-.41.71-.72,1.08-1.07.41-.3.79-.62,1.23-.87,1.7-1.07,3.56-1.79,5.44-2.35,3.77-1.09,7.61-1.61,11.38-1.9,7.55-.54,14.87-.17,21.78.58,6.91.76,13.42,1.93,19.43,3.34,6.02,1.41,11.54,3.05,16.48,4.86,9.87,3.59,17.44,7.81,21.7,11.91,2.12,2.05,3.33,4.09,3.64,5.62.08.38.15.72.14,1.01.01.29.03.54,0,.74-.05.4-.08.59-.08.59Z"/>
              <ellipse class="cls-17" cx="818.21" cy="288.24" rx="13.93" ry="49.59" transform="translate(383.52 1038.98) rotate(-79.33)"/>
              <path class="cls-22" d="M769.48,279.07s8.12,4.19,21.61,6.21c13.5,2.02,43.68-7.48,43.68-7.48,0,0-57.13-14.56-65.29,1.28Z"/>
            </g>
          </g>
        </g>
        <g>
          <path class="cls-9" d="M275.13,438.13c.56-2.48,2.04-4.75,4.08-6.27.75,2.96,3.02,5.49,5.88,6.55-1.07-1.97-1.83-4.11-2.21-6.32-.1-.57-.17-1.19.12-1.68.31-.53.94-.77,1.53-.96,2.41-.77,4.9-1.29,7.42-1.54-.05,3.8,1.91,7.58,5.06,9.72,2.25,1.53,4.96,2.22,7.45,3.34,2.49,1.12,4.94,2.9,5.64,5.53l.08,2.89c-5.63,2.42-12.14,2.19-17.99.36-5.85-1.83-11.11-5.16-16.01-8.84-.39-.29-.8-.61-1.01-1.05-.25-.53-.17-1.15-.04-1.72Z"/>
          <path class="cls-5" d="M456.58,437.39c-.14-.27-.31-.53-.5-.78-.25-3.02-16.67-28.34-16.67-28.34l-97.62,55.13,16.05,27.11s.02-.01.07-.04c5.72,7.58,30.85,2.76,57.37-11.23,27.39-14.44,45.88-33.18,41.3-41.86Z"/>
          <path class="cls-4" d="M456.58,437.43c-.14-.27-.88-2.26-1.2-2.95-1.02-1.79-.19-.91-4.64-8.07,4.57,8.68-14.42,27.89-41.81,42.33-26.47,13.96-51.57,18.79-57.34,11.26l6.25,10.55s.02-.01.07-.04c5.72,7.58,30.85,2.76,57.37-11.23,27.39-14.44,45.88-33.18,41.3-41.86Z"/>
          <path class="cls-3" d="M313.85,417.51l-8.4,60.55,2.08,4.01,147.02-68.63-4.06-56.5-3.51-5.13-130.25,61.78c-1.56.74-2.64,2.22-2.88,3.93Z"/>
          <path class="cls-4" d="M311.96,448.88c9.33,2.41,18.79.16,27.24-4.09,8.58-4.32,16.41-10.35,23.47-16.82,4.01-3.68,7.78-7.61,11.32-11.74.96-1.12-.66-2.75-1.63-1.63-6.04,7.05-12.78,13.54-20.18,19.16-7.26,5.51-15.28,10.66-24.23,12.85-5.07,1.25-10.31,1.35-15.37.04-1.43-.37-2.05,1.85-.61,2.22h0Z"/>
          <g class="cls-23">
            <path class="cls-4" d="M454.54,413.44c.06.12-32.61,15.49-72.95,34.32-40.36,18.84-73.1,34.01-73.16,33.89-.06-.12,32.6-15.48,72.96-34.32,40.34-18.83,73.1-34,73.15-33.88Z"/>
          </g>
          <path class="cls-4" d="M383.87,405.3c-2.09-.44-4.16.07-6.16.82-2.02.75-3.72,2.31-4.63,4.26-.92,1.94-1.04,4.25-.34,6.28l16.5-7.24c-1.16-1.95-3.26-3.68-5.36-4.12Z"/>
          <g>
            <path class="cls-4" d="M316.48,448.71c-.41,2.42-2.7,4.05-5.12,3.65-2.42-.41-4.05-2.7-3.65-5.12s2.7-4.05,5.12-3.65c2.42.41,4.05,2.7,3.65,5.12Z"/>
            <path class="cls-4" d="M316.48,448.71s.03-.4-.05-1.09c-.08-.68-.37-1.69-1.22-2.57-.82-.88-2.29-1.53-3.87-1.23-1.56.26-3.09,1.62-3.38,3.45-.32,1.83.68,3.61,2.07,4.37,1.39.81,3,.67,4.06.1,1.09-.55,1.7-1.42,1.99-2.03.3-.63.36-1.02.4-1.01.02,0,.01.1-.01.29-.02.19-.09.46-.22.8-.25.66-.84,1.62-2,2.26-1.12.65-2.88.85-4.44-.02-1.55-.81-2.69-2.79-2.33-4.83.32-2.04,2.05-3.54,3.78-3.81,1.75-.32,3.35.45,4.2,1.43.89.98,1.14,2.08,1.16,2.79.01.36-.01.64-.05.82-.04.18-.06.28-.08.28Z"/>
          </g>
        </g>
        <path class="cls-8" d="M585.52,271.62c.13-.21.25-.43.35-.65,2.01-1.36,13.29-22.83,13.29-22.83l-77.05-46.67-12.67,21.91s.02.01.05.03c-3.06,6.99,10.22,22.7,30.45,35.76,20.9,13.5,41.3,19.07,45.58,12.45Z"/>
        <path class="cls-4" d="M585.5,271.64c.13-.21,1.23-1.51,1.6-2,.86-1.42.56-.49,3.83-6.43-4.28,6.62-25.21.88-46.11-12.62-20.2-13.05-33.46-28.72-30.46-35.73l-4.93,8.53s.02.01.05.03c-3.06,6.99,10.22,22.7,30.45,35.76,20.9,13.5,41.3,19.07,45.58,12.45Z"/>
        <path class="cls-1" d="M543.25,163.82l-45.72,17.95-1.99,3.03,105.95,75.96,37.98-25.09,2.21-4.48-94.55-66.91c-1.13-.8-2.59-.98-3.89-.47Z"/>
        <path class="cls-4" d="M520.54,174.85c1.98,7.49,7.29,13.23,13.59,17.47,6.4,4.31,13.71,7.42,21.02,9.81,4.15,1.36,8.39,2.45,12.68,3.31,1.16.23,1.67-1.55.5-1.78-7.32-1.46-14.52-3.62-21.36-6.59-6.72-2.92-13.48-6.51-18.54-11.91-2.87-3.06-5.01-6.69-6.08-10.75-.31-1.15-2.1-.71-1.79.45h0Z"/>
        <path class="cls-4" d="M601.5,260.77c-.06.09-23.69-16.74-52.76-37.59-29.08-20.85-52.6-37.82-52.54-37.9.06-.09,23.68,16.74,52.76,37.59,29.07,20.84,52.6,37.81,52.53,37.9Z"/>
        <path class="cls-4" d="M579.37,208.06c-.52-1.64-1.69-2.89-3-3.99-1.32-1.12-3.08-1.69-4.81-1.57-1.72.12-3.39.94-4.54,2.23l11.57,8.71c.91-1.58,1.29-3.73.78-5.38Z"/>
        <path class="cls-4" d="M522.44,177.94c-1.85.67-3.9-.29-4.57-2.15-.67-1.85.29-3.9,2.15-4.57,1.85-.67,3.9.29,4.57,2.15.67,1.85-.29,3.9-2.15,4.57Z"/>
        <path class="cls-4" d="M522.44,177.94s.29-.14.74-.46c.44-.32,1.04-.92,1.32-1.87.29-.92.17-2.21-.67-3.2-.8-.99-2.35-1.53-3.75-1.01-1.41.49-2.26,1.9-2.24,3.17-.02,1.29.71,2.36,1.53,2.89.82.55,1.66.63,2.21.59.56-.04.85-.15.87-.12,0,.01-.07.05-.21.1-.14.06-.36.12-.64.16-.56.08-1.47.05-2.37-.51-.9-.53-1.73-1.69-1.73-3.12-.04-1.4.9-2.98,2.47-3.53,1.56-.58,3.29.04,4.15,1.15.91,1.1,1,2.52.65,3.5-.34,1.01-1.01,1.61-1.5,1.91-.25.15-.45.24-.6.29-.14.05-.22.06-.23.05Z"/>
        <path class="cls-21" d="M584.31,331.22l4.69,1.76-4.07,1.16c-1.36.39-2.44,1.42-2.88,2.77l-1.47,4.51-1.81-4.52c-.45-1.12-1.36-2-2.49-2.41l-4.12-1.5,4.46-1.83c1.08-.44,1.93-1.31,2.35-2.4l1.61-4.19,1.16,3.9c.38,1.27,1.33,2.3,2.58,2.77Z"/>
        <path class="cls-15" d="M488.82,376.02l4.69,1.76-4.07,1.16c-1.36.39-2.44,1.42-2.88,2.77l-1.47,4.51-1.81-4.52c-.45-1.12-1.36-2-2.49-2.41l-4.12-1.5,4.46-1.83c1.08-.44,1.93-1.31,2.35-2.4l1.61-4.19,1.16,3.9c.38,1.27,1.33,2.3,2.58,2.77Z"/>
        <path class="cls-16" d="M532.13,476.69l4.69,1.76-4.07,1.16c-1.36.39-2.44,1.42-2.88,2.77l-1.47,4.51-1.81-4.52c-.45-1.12-1.36-2-2.49-2.41l-4.12-1.5,4.46-1.83c1.08-.44,1.93-1.31,2.35-2.4l1.61-4.19,1.16,3.9c.38,1.27,1.33,2.3,2.58,2.77Z"/>
        <path class="cls-15" d="M683.77,443.93l4.33,1.63-3.76,1.07c-1.26.36-2.25,1.31-2.66,2.55l-1.36,4.16-1.67-4.17c-.42-1.04-1.25-1.84-2.3-2.23l-3.8-1.38,4.12-1.69c1-.41,1.78-1.21,2.17-2.22l1.49-3.87,1.07,3.6c.35,1.18,1.23,2.12,2.38,2.55Z"/>
        <path class="cls-15" d="M668.36,220.29l4.33,1.63-3.76,1.07c-1.26.36-2.25,1.31-2.66,2.55l-1.36,4.16-1.67-4.17c-.42-1.04-1.25-1.84-2.3-2.23l-3.8-1.38,4.12-1.69c1-.41,1.78-1.21,2.17-2.22l1.49-3.87,1.07,3.6c.35,1.18,1.23,2.12,2.38,2.55Z"/>
        <path class="cls-21" d="M867.05,365.55l7.16,2.69-6.21,1.76c-2.07.59-3.72,2.17-4.39,4.22l-2.25,6.87-2.77-6.89c-.69-1.71-2.07-3.05-3.8-3.68l-6.29-2.28,6.81-2.8c1.65-.68,2.94-2,3.58-3.67l2.46-6.39,1.76,5.94c.58,1.94,2.03,3.51,3.93,4.22Z"/>
        <path class="cls-18" d="M820.23,457.89l7.16,2.69-6.21,1.76c-2.07.59-3.72,2.17-4.39,4.22l-2.25,6.87-2.77-6.89c-.69-1.71-2.07-3.05-3.8-3.68l-6.29-2.28,6.81-2.8c1.65-.68,2.94-2,3.58-3.67l2.46-6.39,1.76,5.94c.58,1.94,2.03,3.51,3.93,4.22Z"/>
        <path class="cls-18" d="M690.86,251.15l7.16,2.69-6.21,1.76c-2.07.59-3.72,2.17-4.39,4.22l-2.25,6.87-2.77-6.89c-.69-1.71-2.07-3.05-3.8-3.68l-6.29-2.28,6.81-2.8c1.65-.68,2.94-2,3.58-3.67l2.46-6.39,1.76,5.94c.58,1.94,2.03,3.51,3.93,4.22Z"/>
        <path class="cls-10" d="M679.9,341.29l9.75,3.67-8.47,2.4c-2.83.8-5.07,2.96-5.98,5.75l-3.06,9.37-3.77-9.39c-.94-2.33-2.82-4.15-5.18-5.01l-8.57-3.11,9.28-3.81c2.25-.92,4.01-2.73,4.88-5l3.35-8.71,2.4,8.1c.79,2.65,2.77,4.78,5.36,5.75Z"/>
        <path class="cls-18" d="M412.24,298.78l9.75,3.67-8.47,2.4c-2.83.8-5.07,2.96-5.98,5.75l-3.06,9.37-3.77-9.39c-.94-2.33-2.82-4.15-5.18-5.01l-8.57-3.11,9.28-3.81c2.25-.92,4.01-2.73,4.88-5l3.35-8.71,2.4,8.1c.79,2.65,2.77,4.78,5.36,5.75Z"/>
        <path class="cls-21" d="M478.54,515.01l9.75,3.67-8.47,2.4c-2.83.8-5.07,2.96-5.98,5.75l-3.06,9.37-3.77-9.39c-.94-2.33-2.82-4.15-5.18-5.01l-8.57-3.11,9.28-3.81c2.25-.92,4.01-2.73,4.88-5l3.35-8.71,2.4,8.1c.79,2.65,2.77,4.78,5.36,5.75Z"/>
      </g>
      <path class="cls-9" d="M487.2,163.98c.56-2.48,2.04-4.75,4.08-6.27.75,2.96,3.02,5.49,5.88,6.55-1.07-1.97-1.83-4.11-2.21-6.32-.1-.57-.17-1.19.12-1.68.31-.53.94-.77,1.53-.96,2.41-.77,4.9-1.29,7.42-1.54-.05,3.8,1.91,7.58,5.06,9.72,2.25,1.53,4.96,2.22,7.45,3.34,2.49,1.12,4.94,2.9,5.64,5.53l.08,2.89c-5.63,2.42-12.14,2.19-17.99.36-5.85-1.83-11.11-5.16-16.01-8.84-.39-.29-.8-.61-1.01-1.05-.25-.53-.17-1.15-.04-1.72Z"/>
    </g>
    <path class="cls-16" d="M851.48,100.8l9.75,3.67-8.47,2.4c-2.83.8-5.07,2.96-5.98,5.75l-3.06,9.37-3.77-9.39c-.94-2.33-2.82-4.15-5.18-5.01l-8.57-3.11,9.28-3.81c2.25-.92,4.01-2.73,4.88-5l3.35-8.71,2.4,8.1c.79,2.65,2.77,4.78,5.36,5.75Z"/>
  </g>
  <path class="cls-13" d="M936.36,431.6l9.75,3.67-8.47,2.4c-2.83.8-5.07,2.96-5.98,5.75l-3.06,9.37-3.77-9.39c-.94-2.33-2.82-4.15-5.18-5.01l-8.57-3.11,9.28-3.81c2.25-.92,4.01-2.73,4.88-5l3.35-8.71,2.4,8.1c.79,2.65,2.77,4.78,5.36,5.75Z"/>
</svg>